<svg version="1.1" id="Layer_1" xmlns="http://www.w3.org/2000/svg" xmlns:xlink="http://www.w3.org/1999/xlink" x="0px" y="0px"
	 width="100%" viewBox="0 0 512 512" xml:space="preserve">
<path fill="#000000" opacity="0.000000" stroke="none" 
	d="
M513.000000,272.000000 
	C513.000000,352.298309 513.000000,432.596649 513.000000,512.947510 
	C342.442780,512.947510 171.885513,512.947510 1.000000,512.947510 
	C1.000000,432.311615 1.000000,351.622803 1.328610,270.579132 
	C4.162928,275.059967 6.057465,280.357605 9.294627,284.640411 
	C17.395590,295.358093 25.811090,305.872528 34.646187,315.991974 
	C45.366516,328.270691 53.844822,341.287506 55.254761,358.176941 
	C56.303417,370.738647 57.975906,383.286560 60.126831,395.709656 
	C64.059761,418.425201 76.433723,434.473419 99.581505,439.477539 
	C114.782875,442.763794 130.411682,444.244171 145.916016,445.910370 
	C161.959091,447.634491 176.765213,451.882904 189.769165,461.995605 
	C201.430466,471.064209 213.196793,480.141815 225.718277,487.926208 
	C244.050613,499.323120 263.448669,500.600433 283.284760,490.925690 
	C296.898865,484.285583 308.462433,474.774841 320.041138,465.334595 
	C334.041626,453.919769 349.707794,447.406586 367.760864,445.910370 
	C381.972748,444.732483 396.237213,443.311554 410.242554,440.723083 
	C431.528168,436.789062 446.991638,425.027496 452.456116,403.288330 
	C455.276184,392.069458 456.372955,380.398743 457.951599,368.891510 
	C459.622833,356.709412 460.052216,344.129028 466.959747,333.446899 
	C471.625336,326.231873 477.092560,319.480591 482.673553,312.923950 
	C493.006989,300.784088 504.386566,289.457642 510.831604,274.472015 
	C511.243500,273.514282 512.263123,272.817963 513.000000,272.000000 
z"/>
<path fill="#000000" opacity="0.000000" stroke="none" 
	d="
M0.999998,244.000000 
	C1.000000,163.035309 1.000000,82.070625 1.000000,1.052968 
	C171.556931,1.052968 342.113892,1.052968 513.000000,1.052968 
	C513.000000,81.021713 513.000000,161.043869 512.675171,241.426163 
	C509.773956,237.168945 507.746429,232.119629 504.516724,228.016525 
	C495.382721,216.412460 485.838013,205.126877 476.299194,193.847672 
	C467.751221,183.740036 461.408295,172.720184 459.890930,159.251755 
	C458.440552,146.378067 456.750854,133.527664 454.938934,120.699150 
	C451.273285,94.746292 435.926605,77.980209 410.569580,73.306740 
	C397.043579,70.813789 383.298126,69.231522 369.580078,68.131531 
	C352.536346,66.764862 337.088318,61.987423 323.535156,51.209675 
	C313.522980,43.247799 303.380768,35.364868 292.717102,28.324341 
	C270.202515,13.459421 246.939133,12.172007 223.907806,27.139355 
	C213.197189,34.099850 202.961197,41.842674 192.876907,49.701588 
	C180.778336,59.130272 167.654160,65.572014 152.185913,67.176033 
	C136.164276,68.837425 120.074997,70.360588 104.243095,73.209900 
	C83.566231,76.931160 68.000435,88.075310 62.636093,109.298660 
	C59.315712,122.435326 57.820015,136.073395 56.099918,149.562225 
	C54.593922,161.372070 53.090294,173.216110 46.078831,183.126129 
	C40.244110,191.372925 33.426418,198.942322 26.828945,206.627014 
	C17.716526,217.241165 8.334013,227.626526 3.389551,241.078934 
	C2.979465,242.194641 1.814322,243.032852 0.999998,244.000000 
z"/>
<path fill="#262626" opacity="1.000000" stroke="none" 
	d="
M0.999998,244.468658 
	C1.814322,243.032852 2.979465,242.194641 3.389551,241.078934 
	C8.334013,227.626526 17.716526,217.241165 26.828945,206.627014 
	C33.426418,198.942322 40.244110,191.372925 46.078831,183.126129 
	C53.090294,173.216110 54.593922,161.372070 56.099918,149.562225 
	C57.820015,136.073395 59.315712,122.435326 62.636093,109.298660 
	C68.000435,88.075310 83.566231,76.931160 104.243095,73.209900 
	C120.074997,70.360588 136.164276,68.837425 152.185913,67.176033 
	C167.654160,65.572014 180.778336,59.130272 192.876907,49.701588 
	C202.961197,41.842674 213.197189,34.099850 223.907806,27.139355 
	C246.939133,12.172007 270.202515,13.459421 292.717102,28.324341 
	C303.380768,35.364868 313.522980,43.247799 323.535156,51.209675 
	C337.088318,61.987423 352.536346,66.764862 369.580078,68.131531 
	C383.298126,69.231522 397.043579,70.813789 410.569580,73.306740 
	C435.926605,77.980209 451.273285,94.746292 454.938934,120.699150 
	C456.750854,133.527664 458.440552,146.378067 459.890930,159.251755 
	C461.408295,172.720184 467.751221,183.740036 476.299194,193.847672 
	C485.838013,205.126877 495.382721,216.412460 504.516724,228.016525 
	C507.746429,232.119629 509.773956,237.168945 512.675171,241.893143 
	C513.000000,251.687561 513.000000,261.375122 513.000000,271.531372 
	C512.263123,272.817963 511.243500,273.514282 510.831604,274.472015 
	C504.386566,289.457642 493.006989,300.784088 482.673553,312.923950 
	C477.092560,319.480591 471.625336,326.231873 466.959747,333.446899 
	C460.052216,344.129028 459.622833,356.709412 457.951599,368.891510 
	C456.372955,380.398743 455.276184,392.069458 452.456116,403.288330 
	C446.991638,425.027496 431.528168,436.789062 410.242554,440.723083 
	C396.237213,443.311554 381.972748,444.732483 367.760864,445.910370 
	C349.707794,447.406586 334.041626,453.919769 320.041138,465.334595 
	C308.462433,474.774841 296.898865,484.285583 283.284760,490.925690 
	C263.448669,500.600433 244.050613,499.323120 225.718277,487.926208 
	C213.196793,480.141815 201.430466,471.064209 189.769165,461.995605 
	C176.765213,451.882904 161.959091,447.634491 145.916016,445.910370 
	C130.411682,444.244171 114.782875,442.763794 99.581505,439.477539 
	C76.433723,434.473419 64.059761,418.425201 60.126831,395.709656 
	C57.975906,383.286560 56.303417,370.738647 55.254761,358.176941 
	C53.844822,341.287506 45.366516,328.270691 34.646187,315.991974 
	C25.811090,305.872528 17.395590,295.358093 9.294627,284.640411 
	C6.057465,280.357605 4.162928,275.059967 1.328610,270.112152 
	C1.000000,261.645752 1.000000,253.291534 0.999998,244.468658 
M322.758911,70.776001 
	C320.428070,69.168442 318.050629,67.623947 315.774292,65.942566 
	C305.059479,58.028179 294.552399,49.818340 283.634155,42.196777 
	C266.272980,30.077732 248.504562,29.912395 231.091797,42.081543 
	C219.495087,50.186058 208.266342,58.818394 196.900620,67.251816 
	C185.003159,76.079796 171.717987,81.392876 157.013138,83.165909 
	C140.984055,85.098595 124.898117,86.654732 108.941101,89.064590 
	C91.304138,91.728149 79.864212,101.654984 76.703201,119.731377 
	C75.185051,128.413010 73.585037,137.155212 73.104836,145.929245 
	C71.740334,170.860641 63.579395,192.611740 45.749073,210.603027 
	C38.854031,217.560333 32.544765,225.199783 26.689098,233.064850 
	C13.642332,250.588623 13.538195,263.437073 26.639540,280.822449 
	C34.043411,290.647278 42.302429,299.858215 50.545944,309.012787 
	C63.661247,323.577637 70.346291,340.632416 72.175400,360.008942 
	C73.315926,372.090820 74.882225,384.181946 77.168968,396.093903 
	C80.096451,411.343597 89.654587,421.056335 104.953094,423.938507 
	C117.191978,426.244293 129.607864,427.976562 142.024216,428.894989 
	C164.864258,430.584442 185.749725,436.695251 203.742264,451.592285 
	C212.831711,459.117950 222.484772,466.021515 232.267044,472.638580 
	C248.579529,483.673035 265.379608,483.848145 281.825867,472.920868 
	C290.690308,467.031128 299.494690,460.907928 307.575806,454.010895 
	C326.792267,437.610107 349.045227,430.197601 373.977905,428.777985 
	C386.057617,428.090210 398.144257,426.172363 410.032593,423.823425 
	C424.399200,420.984772 433.912628,412.012543 436.888580,397.524658 
	C439.226288,386.143890 440.881866,374.561829 441.909515,362.986511 
	C443.749176,342.265564 450.192444,323.728607 464.598511,308.261383 
	C471.520325,300.829681 478.230530,293.168365 484.592529,285.254059 
	C501.839600,263.798706 501.836090,250.122208 484.496613,228.636169 
	C476.758789,219.047958 468.387421,209.973801 460.441162,200.550339 
	C451.431000,189.865173 445.723694,177.605576 443.848785,163.707428 
	C442.113037,150.841202 440.796936,137.915909 438.916534,125.072182 
	C435.643311,102.715225 426.777008,93.149139 404.542023,88.907463 
	C393.944031,86.885719 383.096130,86.106857 372.335846,85.017975 
	C355.181549,83.282036 338.203979,81.056992 322.758911,70.776001 
z"/>
<path fill="#D06DAA" opacity="1.000000" stroke="none" 
	d="
M323.072906,70.956696 
	C338.203979,81.056992 355.181549,83.282036 372.335846,85.017975 
	C383.096130,86.106857 393.944031,86.885719 404.542023,88.907463 
	C426.777008,93.149139 435.643311,102.715225 438.916534,125.072182 
	C440.796936,137.915909 442.113037,150.841202 443.848785,163.707428 
	C445.723694,177.605576 451.431000,189.865173 460.441162,200.550339 
	C468.387421,209.973801 476.758789,219.047958 484.496613,228.636169 
	C501.836090,250.122208 501.839600,263.798706 484.592529,285.254059 
	C478.230530,293.168365 471.520325,300.829681 464.598511,308.261383 
	C450.192444,323.728607 443.749176,342.265564 441.909515,362.986511 
	C440.881866,374.561829 439.226288,386.143890 436.888580,397.524658 
	C433.912628,412.012543 424.399200,420.984772 410.032593,423.823425 
	C398.144257,426.172363 386.057617,428.090210 373.977905,428.777985 
	C349.045227,430.197601 326.792267,437.610107 307.575806,454.010895 
	C299.494690,460.907928 290.690308,467.031128 281.825867,472.920868 
	C265.379608,483.848145 248.579529,483.673035 232.267044,472.638580 
	C222.484772,466.021515 212.831711,459.117950 203.742264,451.592285 
	C185.749725,436.695251 164.864258,430.584442 142.024216,428.894989 
	C129.607864,427.976562 117.191978,426.244293 104.953094,423.938507 
	C89.654587,421.056335 80.096451,411.343597 77.168968,396.093903 
	C74.882225,384.181946 73.315926,372.090820 72.175400,360.008942 
	C70.346291,340.632416 63.661247,323.577637 50.545944,309.012787 
	C42.302429,299.858215 34.043411,290.647278 26.639540,280.822449 
	C13.538195,263.437073 13.642332,250.588623 26.689098,233.064850 
	C32.544765,225.199783 38.854031,217.560333 45.749073,210.603027 
	C63.579395,192.611740 71.740334,170.860641 73.104836,145.929245 
	C73.585037,137.155212 75.185051,128.413010 76.703201,119.731377 
	C79.864212,101.654984 91.304138,91.728149 108.941101,89.064590 
	C124.898117,86.654732 140.984055,85.098595 157.013138,83.165909 
	C171.717987,81.392876 185.003159,76.079796 196.900620,67.251816 
	C208.266342,58.818394 219.495087,50.186058 231.091797,42.081543 
	C248.504562,29.912395 266.272980,30.077732 283.634155,42.196777 
	C294.552399,49.818340 305.059479,58.028179 315.774292,65.942566 
	C318.050629,67.623947 320.428070,69.168442 323.072906,70.956696 
M390.548645,180.020416 
	C389.074066,178.125122 387.396851,176.351883 386.166473,174.309479 
	C383.474213,169.840302 381.008636,165.234512 378.944672,160.177170 
	C383.001434,157.506622 384.768188,153.538086 382.290070,149.445984 
	C376.109863,139.240677 370.278412,128.578079 362.546722,119.617966 
	C351.812439,107.178238 337.110687,102.642578 320.889221,105.794060 
	C309.327911,108.040161 297.789246,110.919815 286.653351,114.725006 
	C266.776794,121.516907 247.263443,121.777924 227.473022,114.697441 
	C219.497650,111.844063 211.282120,109.579269 203.057037,107.521629 
	C175.644501,100.663940 157.101517,107.736443 141.730148,131.481232 
	C136.144043,140.110306 131.360382,149.355621 127.098953,158.723846 
	C119.854698,174.649429 109.993744,188.373642 96.298889,199.321838 
	C93.048256,201.920517 89.843277,204.622330 86.922379,207.578186 
	C80.260445,214.319839 73.100082,220.722168 67.373619,228.204758 
	C53.262177,246.643707 53.170078,267.424011 67.449699,285.805969 
	C74.138313,294.416138 82.553886,301.705750 90.351959,309.427002 
	C97.802025,316.803711 105.683655,323.754181 112.961380,331.291962 
	C117.926186,336.434143 119.135719,337.189270 126.114189,335.704712 
	C129.254883,341.572540 132.395584,347.440338 135.045685,353.818726 
	C130.788940,356.653625 129.335068,360.652985 131.886414,365.020447 
	C137.160309,374.048370 142.114120,383.443481 148.647766,391.515381 
	C160.088120,405.649200 175.498825,411.694885 193.585373,408.106232 
	C205.788437,405.684967 217.907104,402.472839 229.734024,398.606506 
	C247.810669,392.697144 265.576050,392.314117 283.616974,398.449097 
	C292.428314,401.445526 301.415436,403.983215 310.430969,406.310181 
	C338.591919,413.578644 358.142670,405.687866 373.398987,380.932373 
	C376.886017,375.274139 379.955963,369.347412 383.009064,363.436401 
	C386.204437,357.250031 385.750610,355.136505 381.148926,349.597137 
	C382.817383,346.676270 384.485870,343.755402 386.904602,341.024231 
	C391.089172,342.876282 394.740143,342.048279 397.241577,338.271881 
	C400.110443,333.940857 398.433594,330.198730 395.155090,326.334015 
	C398.044800,323.544373 400.934479,320.754730 404.509644,318.266449 
	C408.321899,320.783020 411.779938,319.863739 414.988739,317.111938 
	C418.146606,314.403839 421.443390,311.819977 424.336273,308.847809 
	C432.436859,300.525116 441.343842,292.747711 448.134003,283.442657 
	C459.682434,267.617004 460.466400,250.156830 449.965240,233.408371 
	C445.085358,225.625366 438.508789,218.759491 431.987091,212.186569 
	C421.921600,202.042068 411.187439,192.563934 400.859436,182.675171 
	C397.981384,179.919510 394.854736,179.404327 390.548645,180.020416 
z"/>
<path fill="#C04D8F" opacity="1.000000" stroke="none" 
	d="
M386.154358,340.834564 
	C384.485870,343.755402 382.817383,346.676270 380.573303,349.861816 
	C374.560303,348.816162 371.400726,351.226318 368.787170,355.958618 
	C364.217438,364.232849 359.625916,372.605072 354.000732,380.159760 
	C346.223480,390.604675 335.337616,395.219208 322.335602,392.232361 
	C310.203247,389.445251 298.137482,386.227203 286.259399,382.506256 
	C266.715607,376.383881 247.388275,376.264801 227.876526,382.507843 
	C217.431763,385.849762 206.850662,388.797668 196.244904,391.596924 
	C179.559677,396.000763 166.424179,390.553986 156.913635,376.396332 
	C153.305740,371.025543 150.023010,365.396423 147.061462,359.643433 
	C144.531662,354.729156 141.202606,352.110443 135.536285,353.308167 
	C132.395584,347.440338 129.254883,341.572540 126.211723,335.049255 
	C129.684921,329.583374 129.600418,325.323456 124.556488,320.189423 
	C116.165627,311.648682 107.129913,303.745514 98.586075,295.349670 
	C92.070679,288.947083 85.226295,282.708344 79.720406,275.487701 
	C70.437340,263.313629 70.523026,250.904709 79.602921,238.599564 
	C84.113434,232.486893 89.239281,226.471008 95.201637,221.849792 
	C118.940681,203.450516 136.289108,180.526550 147.992996,152.869354 
	C151.356125,144.921997 156.963654,137.675369 162.600449,131.001297 
	C169.899490,122.359093 179.959564,119.176323 191.052094,121.638321 
	C202.396667,124.156265 213.727158,126.999237 224.750717,130.646301 
	C246.243179,137.756897 267.476837,137.925644 288.937347,130.694931 
	C298.226501,127.565132 307.743958,125.091179 317.212036,122.519211 
	C334.320892,117.871658 347.685760,123.411659 357.360626,137.976212 
	C360.943054,143.369202 364.163574,149.032578 367.159760,154.775787 
	C369.651611,159.552322 373.065857,161.806778 378.450500,160.684525 
	C381.008636,165.234512 383.474213,169.840302 386.166473,174.309479 
	C387.396851,176.351883 389.074066,178.125122 390.663513,180.411331 
	C385.734192,185.143051 385.202606,189.123901 389.499634,193.991592 
	C393.126129,198.099655 397.034363,201.977692 401.010559,205.754700 
	C410.774200,215.029343 421.268280,223.619705 430.337738,233.521149 
	C444.895905,249.414841 444.790894,264.589813 430.314758,280.562805 
	C422.635834,289.035706 413.764923,296.434875 405.359100,304.240082 
	C400.099060,309.124268 399.690613,312.134338 403.824158,317.965057 
	C400.934479,320.754730 398.044800,323.544373 394.679260,326.582703 
	C389.977539,325.076538 386.357117,325.995819 383.983734,329.855835 
	C381.445709,333.983612 382.928131,337.665649 386.154358,340.834564 
M205.279144,190.683121 
	C202.090576,193.747696 198.902008,196.812271 195.151810,199.498627 
	C191.674118,195.990433 187.942551,196.247177 183.744568,198.294846 
	C177.319458,201.428879 170.747589,204.265305 164.209091,207.162827 
	C155.236435,211.139008 146.052246,214.688171 137.300949,219.099304 
	C128.687653,223.440857 121.573593,229.761414 117.149086,238.594696 
	C108.151222,256.558441 113.025391,278.613495 130.224182,290.019562 
	C140.776764,297.017914 152.785065,302.114990 164.649002,306.766846 
	C179.042648,312.410583 191.962921,319.738037 202.246597,331.437439 
	C205.100983,334.684753 208.303436,337.634552 211.433273,340.629883 
	C239.946640,367.918030 273.461487,368.074493 302.123627,341.070404 
	C303.821625,339.470612 305.638245,337.958252 307.118988,336.172485 
	C320.310059,320.264221 337.452606,310.742004 356.688416,303.882904 
	C366.299744,300.455719 375.596405,295.505951 384.140137,289.884247 
	C395.218384,282.594818 400.703583,271.502472 400.996552,258.058655 
	C401.354034,241.654907 393.977051,229.243332 380.155579,221.303482 
	C370.256348,215.616776 359.582001,211.095871 348.882782,207.030457 
	C334.583130,201.597000 322.048950,193.984604 311.701569,182.591614 
	C306.567383,176.938553 300.947449,171.604568 294.957001,166.873688 
	C275.587433,151.576782 254.383240,148.656921 231.701538,158.796143 
	C225.096405,161.748764 224.019608,164.617599 225.452850,171.918274 
	C222.801193,174.224777 220.149521,176.531281 216.896133,178.560135 
	C213.252213,176.295822 209.684814,176.347122 206.577164,179.385681 
	C203.238464,182.650116 203.664047,186.402679 205.279144,190.683121 
z"/>
<path fill="#272627" opacity="1.000000" stroke="none" 
	d="
M378.697571,160.430847 
	C373.065857,161.806778 369.651611,159.552322 367.159760,154.775787 
	C364.163574,149.032578 360.943054,143.369202 357.360626,137.976212 
	C347.685760,123.411659 334.320892,117.871658 317.212036,122.519211 
	C307.743958,125.091179 298.226501,127.565132 288.937347,130.694931 
	C267.476837,137.925644 246.243179,137.756897 224.750717,130.646301 
	C213.727158,126.999237 202.396667,124.156265 191.052094,121.638321 
	C179.959564,119.176323 169.899490,122.359093 162.600449,131.001297 
	C156.963654,137.675369 151.356125,144.921997 147.992996,152.869354 
	C136.289108,180.526550 118.940681,203.450516 95.201637,221.849792 
	C89.239281,226.471008 84.113434,232.486893 79.602921,238.599564 
	C70.523026,250.904709 70.437340,263.313629 79.720406,275.487701 
	C85.226295,282.708344 92.070679,288.947083 98.586075,295.349670 
	C107.129913,303.745514 116.165627,311.648682 124.556488,320.189423 
	C129.600418,325.323456 129.684921,329.583374 126.126961,334.697815 
	C119.135719,337.189270 117.926186,336.434143 112.961380,331.291962 
	C105.683655,323.754181 97.802025,316.803711 90.351959,309.427002 
	C82.553886,301.705750 74.138313,294.416138 67.449699,285.805969 
	C53.170078,267.424011 53.262177,246.643707 67.373619,228.204758 
	C73.100082,220.722168 80.260445,214.319839 86.922379,207.578186 
	C89.843277,204.622330 93.048256,201.920517 96.298889,199.321838 
	C109.993744,188.373642 119.854698,174.649429 127.098953,158.723846 
	C131.360382,149.355621 136.144043,140.110306 141.730148,131.481232 
	C157.101517,107.736443 175.644501,100.663940 203.057037,107.521629 
	C211.282120,109.579269 219.497650,111.844063 227.473022,114.697441 
	C247.263443,121.777924 266.776794,121.516907 286.653351,114.725006 
	C297.789246,110.919815 309.327911,108.040161 320.889221,105.794060 
	C337.110687,102.642578 351.812439,107.178238 362.546722,119.617966 
	C370.278412,128.578079 376.109863,139.240677 382.290070,149.445984 
	C384.768188,153.538086 383.001434,157.506622 378.697571,160.430847 
z"/>
<path fill="#282627" opacity="1.000000" stroke="none" 
	d="
M135.290985,353.563446 
	C141.202606,352.110443 144.531662,354.729156 147.061462,359.643433 
	C150.023010,365.396423 153.305740,371.025543 156.913635,376.396332 
	C166.424179,390.553986 179.559677,396.000763 196.244904,391.596924 
	C206.850662,388.797668 217.431763,385.849762 227.876526,382.507843 
	C247.388275,376.264801 266.715607,376.383881 286.259399,382.506256 
	C298.137482,386.227203 310.203247,389.445251 322.335602,392.232361 
	C335.337616,395.219208 346.223480,390.604675 354.000732,380.159760 
	C359.625916,372.605072 364.217438,364.232849 368.787170,355.958618 
	C371.400726,351.226318 374.560303,348.816162 380.416290,350.193665 
	C385.750610,355.136505 386.204437,357.250031 383.009064,363.436401 
	C379.955963,369.347412 376.886017,375.274139 373.398987,380.932373 
	C358.142670,405.687866 338.591919,413.578644 310.430969,406.310181 
	C301.415436,403.983215 292.428314,401.445526 283.616974,398.449097 
	C265.576050,392.314117 247.810669,392.697144 229.734024,398.606506 
	C217.907104,402.472839 205.788437,405.684967 193.585373,408.106232 
	C175.498825,411.694885 160.088120,405.649200 148.647766,391.515381 
	C142.114120,383.443481 137.160309,374.048370 131.886414,365.020447 
	C129.335068,360.652985 130.788940,356.653625 135.290985,353.563446 
z"/>
<path fill="#282627" opacity="1.000000" stroke="none" 
	d="
M404.166901,318.115753 
	C399.690613,312.134338 400.099060,309.124268 405.359100,304.240082 
	C413.764923,296.434875 422.635834,289.035706 430.314758,280.562805 
	C444.790894,264.589813 444.895905,249.414841 430.337738,233.521149 
	C421.268280,223.619705 410.774200,215.029343 401.010559,205.754700 
	C397.034363,201.977692 393.126129,198.099655 389.499634,193.991592 
	C385.202606,189.123901 385.734192,185.143051 391.003662,180.544662 
	C394.854736,179.404327 397.981384,179.919510 400.859436,182.675171 
	C411.187439,192.563934 421.921600,202.042068 431.987091,212.186569 
	C438.508789,218.759491 445.085358,225.625366 449.965240,233.408371 
	C460.466400,250.156830 459.682434,267.617004 448.134003,283.442657 
	C441.343842,292.747711 432.436859,300.525116 424.336273,308.847809 
	C421.443390,311.819977 418.146606,314.403839 414.988739,317.111938 
	C411.779938,319.863739 408.321899,320.783020 404.166901,318.115753 
z"/>
<path fill="#292628" opacity="1.000000" stroke="none" 
	d="
M386.529480,340.929382 
	C382.928131,337.665649 381.445709,333.983612 383.983734,329.855835 
	C386.357117,325.995819 389.977539,325.076538 394.575989,326.908051 
	C398.433594,330.198730 400.110443,333.940857 397.241577,338.271881 
	C394.740143,342.048279 391.089172,342.876282 386.529480,340.929382 
z"/>
<path fill="#F6A439" opacity="1.000000" stroke="none" 
	d="
M217.497864,178.837784 
	C220.149521,176.531281 222.801193,174.224777 226.068939,171.941132 
	C230.230896,175.775085 234.023270,175.339844 238.449707,173.295990 
	C253.809464,166.203888 268.712830,167.522858 282.306335,177.490356 
	C288.838562,182.280121 294.860016,187.959808 300.351532,193.935989 
	C312.482574,207.137650 327.118683,216.032501 343.842987,222.181412 
	C353.475800,225.723053 362.791901,230.251282 371.940033,234.941223 
	C377.843719,237.967850 382.100647,242.976761 383.961334,249.619339 
	C387.164398,261.054382 383.733429,271.896576 373.095001,278.154846 
	C363.704010,283.679291 353.538452,288.094025 343.322144,291.961029 
	C326.994904,298.141113 312.565643,306.776154 300.683563,319.735809 
	C295.415955,325.481171 289.677887,330.931458 283.520264,335.697815 
	C267.626160,348.000854 247.886093,348.286560 231.618210,336.511719 
	C226.125549,332.536102 220.920868,327.928467 216.411728,322.872070 
	C202.880524,307.698578 186.440659,297.429047 167.329010,290.652771 
	C157.697800,287.237915 148.088867,282.880798 139.639389,277.207825 
	C125.078117,267.431458 125.208870,247.395569 139.243546,236.894730 
	C143.459122,233.740616 148.264252,231.225555 153.088531,229.062973 
	C165.519821,223.490479 178.225449,218.523209 190.595779,212.824249 
	C197.210281,209.776993 198.047745,206.624176 195.713440,199.876862 
	C198.902008,196.812271 202.090576,193.747696 205.761902,190.605606 
	C211.146378,193.725266 214.864594,193.808121 217.828293,190.489502 
	C221.311646,186.588989 220.574203,182.639114 217.497864,178.837784 
M219.395950,286.347626 
	C228.277374,292.416534 238.005447,295.920227 248.967819,296.818909 
	C250.212799,302.761261 252.477188,305.035797 257.810577,304.948517 
	C273.837891,304.686249 288.779022,300.706421 301.864594,291.121460 
	C326.836853,272.829712 327.437744,243.260818 303.317108,223.930801 
	C277.637970,203.351822 233.413971,204.178513 208.577576,225.701797 
	C189.518631,242.218323 187.781937,266.359192 204.355148,284.395294 
	C209.600159,290.103271 212.777130,290.419464 219.395950,286.347626 
z"/>
<path fill="#282626" opacity="1.000000" stroke="none" 
	d="
M195.432632,199.687744 
	C198.047745,206.624176 197.210281,209.776993 190.595779,212.824249 
	C178.225449,218.523209 165.519821,223.490479 153.088531,229.062973 
	C148.264252,231.225555 143.459122,233.740616 139.243546,236.894730 
	C125.208870,247.395569 125.078117,267.431458 139.639389,277.207825 
	C148.088867,282.880798 157.697800,287.237915 167.329010,290.652771 
	C186.440659,297.429047 202.880524,307.698578 216.411728,322.872070 
	C220.920868,327.928467 226.125549,332.536102 231.618210,336.511719 
	C247.886093,348.286560 267.626160,348.000854 283.520264,335.697815 
	C289.677887,330.931458 295.415955,325.481171 300.683563,319.735809 
	C312.565643,306.776154 326.994904,298.141113 343.322144,291.961029 
	C353.538452,288.094025 363.704010,283.679291 373.095001,278.154846 
	C383.733429,271.896576 387.164398,261.054382 383.961334,249.619339 
	C382.100647,242.976761 377.843719,237.967850 371.940033,234.941223 
	C362.791901,230.251282 353.475800,225.723053 343.842987,222.181412 
	C327.118683,216.032501 312.482574,207.137650 300.351532,193.935989 
	C294.860016,187.959808 288.838562,182.280121 282.306335,177.490356 
	C268.712830,167.522858 253.809464,166.203888 238.449707,173.295990 
	C234.023270,175.339844 230.230896,175.775085 226.374359,171.757080 
	C224.019608,164.617599 225.096405,161.748764 231.701538,158.796143 
	C254.383240,148.656921 275.587433,151.576782 294.957001,166.873688 
	C300.947449,171.604568 306.567383,176.938553 311.701569,182.591614 
	C322.048950,193.984604 334.583130,201.597000 348.882782,207.030457 
	C359.582001,211.095871 370.256348,215.616776 380.155579,221.303482 
	C393.977051,229.243332 401.354034,241.654907 400.996552,258.058655 
	C400.703583,271.502472 395.218384,282.594818 384.140137,289.884247 
	C375.596405,295.505951 366.299744,300.455719 356.688416,303.882904 
	C337.452606,310.742004 320.310059,320.264221 307.118988,336.172485 
	C305.638245,337.958252 303.821625,339.470612 302.123627,341.070404 
	C273.461487,368.074493 239.946640,367.918030 211.433273,340.629883 
	C208.303436,337.634552 205.100983,334.684753 202.246597,331.437439 
	C191.962921,319.738037 179.042648,312.410583 164.649002,306.766846 
	C152.785065,302.114990 140.776764,297.017914 130.224182,290.019562 
	C113.025391,278.613495 108.151222,256.558441 117.149086,238.594696 
	C121.573593,229.761414 128.687653,223.440857 137.300949,219.099304 
	C146.052246,214.688171 155.236435,211.139008 164.209091,207.162827 
	C170.747589,204.265305 177.319458,201.428879 183.744568,198.294846 
	C187.942551,196.247177 191.674118,195.990433 195.432632,199.687744 
z"/>
<path fill="#2B2827" opacity="1.000000" stroke="none" 
	d="
M217.196991,178.698959 
	C220.574203,182.639114 221.311646,186.588989 217.828293,190.489502 
	C214.864594,193.808121 211.146378,193.725266 206.015549,190.352554 
	C203.664047,186.402679 203.238464,182.650116 206.577164,179.385681 
	C209.684814,176.347122 213.252213,176.295822 217.196991,178.698959 
z"/>
<path fill="#E98532" opacity="1.000000" stroke="none" 
	d="
M248.841751,296.066071 
	C238.005447,295.920227 228.277374,292.416534 219.235352,285.713806 
	C220.941833,281.128845 220.069244,277.819305 217.165176,274.598969 
	C205.199951,261.330811 206.552795,247.275269 220.702881,236.373291 
	C240.324615,221.255676 273.708557,221.254288 293.303589,236.370285 
	C308.755493,248.290176 308.830933,265.577118 293.371979,277.526917 
	C283.386993,285.245361 271.773529,288.511597 259.358704,288.862793 
	C254.015381,289.013947 250.350067,290.740326 248.841751,296.066071 
z"/>
<path fill="#282725" opacity="1.000000" stroke="none" 
	d="
M248.904785,296.442505 
	C250.350067,290.740326 254.015381,289.013947 259.358704,288.862793 
	C271.773529,288.511597 283.386993,285.245361 293.371979,277.526917 
	C308.830933,265.577118 308.755493,248.290176 293.303589,236.370285 
	C273.708557,221.254288 240.324615,221.255676 220.702881,236.373291 
	C206.552795,247.275269 205.199951,261.330811 217.165176,274.598969 
	C220.069244,277.819305 220.941833,281.128845 218.994537,285.462097 
	C212.777130,290.419464 209.600159,290.103271 204.355148,284.395294 
	C187.781937,266.359192 189.518631,242.218323 208.577576,225.701797 
	C233.413971,204.178513 277.637970,203.351822 303.317108,223.930801 
	C327.437744,243.260818 326.836853,272.829712 301.864594,291.121460 
	C288.779022,300.706421 273.837891,304.686249 257.810577,304.948517 
	C252.477188,305.035797 250.212799,302.761261 248.904785,296.442505 
z"/>
</svg>